<svg height="40" viewBox="0 0 40 40" width="40" xmlns="http://www.w3.org/2000/svg"><path d="m20.0000801 0c11.0456142 0 19.9999199 8.95434156 19.9999199 20 0 11.0456584-8.9543057 20-19.9999199 20-11.04574738 0-20.0000801-8.9543145-20.0000801-20 0-11.04568546 8.95433272-20 20.0000801-20zm0 3.33198499c-9.2055548 0-16.66810846 7.46253851-16.66810846 16.66801501 0 1.0913135.10488031 2.1581313.30511139 3.1909239l.04847512-.1151919c3.55562576 1.4918808 6.67686885 1.975259 9.58216055 1.6570528 2.2168146-.2427997 4.1498433-.8946495 6.6003311-2.0826765l.1506619-.0745799.5828195-.2937076.899809-.448512.606619-.2994653.4360596-.2131758.3964561-.1913374.2897726-.1371331.1224323-.0566376.1356348-.060932c1.3772139-.6032314 2.5137602-.9142289 3.6629049-.9142289 1.3932115 0 2.7342616.5333567 3.734761 1.5340985 2.0455633 2.0455715 2.0455633 5.3619834 0 7.4075549-2.0251076 2.0251157-5.295918 2.0453669-7.3459397.0607534l-.0617456-.0607534 2.593716-2.5937265c.6130935.613096 1.6071598.613096 2.2202533 0 .6130934-.6130959.6130934-1.607006-.0001544-2.2202564-.2990186-.299091-.7025642-.4595874-1.1409505-.4595874-.5329457-.0000174-1.1953531.1768413-2.1051621.5686942l-.1407586.0617059-.1713086.07893-.309607.1472779-.6008398.2924685-.4508035.2222474-1.7537926.8774256-.1556839.0759584c-2.7938165 1.3541721-5.0946153 2.1299866-7.7961243 2.4258732-2.7072186.2965119-5.53684384.0261328-8.56275345-.8922567 2.74208724 5.4456049 8.38266435 9.1812088 14.89575435 9.1812088 9.2054171 0 16.6679483-7.4625611 16.6679483-16.668015 0-.4091313-.0147408-.8148198-.0437203-1.2165635-3.1529502-1.7251904-6.1797604-2.3866005-9.2294792-2.1939926-2.1009072.1326847-4.0730532.6281455-6.4186585 1.5382905l-.3015064.1184454c-.1012042.0402354-.2031234.0812257-.3057961.1229748l-.310318.1275283-.3091928.1296174c-.103852.0439433-.2085037.0886252-.313992.1340496l-.2247784.0982046-1.8507097.8222543-.7304898.3207056-.5981638.2593056-.3470274.1475861-.1973909.0817838-.065047.0262295c-.1165109.0464719-.230919.0911397-.3433667.1339988l-.2223234.0833048c-1.2088644.4448963-2.1919697.6705039-3.1384982.6705039-1.3930083 0-2.73380559-.5332173-3.73476103-1.5339383-2.04556328-2.0455715-2.04556328-5.3621436 0-7.4077151 2.02510763-2.0251157 5.29591803-2.0453669 7.34593973-.0607534l.0617456.0607534-2.593716 2.5937265c-.6130935-.613096-1.6071598-.613096-2.2202533 0-.61309345.6130959-.61309345 1.6071662-.0001544 2.2201077.2993065.2992365.7028895.4597361 1.1412593.4597361.3786917.0000123.8787602-.1045108 1.5408269-.3283024l.1498091-.0517007.1552415-.0556632.1607728-.0596616.1664032-.0636959c.0282086-.0109541.056656-.0220779.0853441-.033372l.1992758-.0801584.2989784-.1259239.3775128-.1626251.8353798-.3655801 2.1284879-.9450513.3468396-.1493262c3.3299796-1.421224 6.0097054-2.1975026 9.0011286-2.3864287 2.8369022-.1791672 5.6597245.2458288 8.4996326 1.3596376-2.3311953-6.39237607-8.4642345-10.95630691-15.6631827-10.95630691z"/></svg>