<?xml version="1.0" encoding="UTF-8"?>
<svg xmlns="http://www.w3.org/2000/svg" width="100pt" height="100pt" version="1.1" viewBox="0 0 100 100">
  <g>
    <path d="m14.613 47.918c-0.55859-0.007813-1.0977 0.20703-1.4922 0.59766-0.39844 0.39062-0.62109 0.92578-0.62109 1.4844s0.22266 1.0938 0.62109 1.4844c0.39453 0.39062 0.93359 0.60547 1.4922 0.59766h70.773c0.55859 0.007813 1.0977-0.20703 1.4922-0.59766 0.39844-0.39062 0.62109-0.92578 0.62109-1.4844s-0.22266-1.0938-0.62109-1.4844c-0.39453-0.39062-0.93359-0.60547-1.4922-0.59766z"></path>
    <path d="m14.613 27.082c-0.55859-0.007812-1.0977 0.21094-1.4922 0.60156-0.39844 0.39062-0.62109 0.92578-0.62109 1.4844 0 0.55469 0.22266 1.0898 0.62109 1.4805 0.39453 0.39453 0.93359 0.60937 1.4922 0.60156h70.773c0.55859 0.007812 1.0977-0.20703 1.4922-0.60156 0.39844-0.39063 0.62109-0.92578 0.62109-1.4805 0-0.55859-0.22266-1.0938-0.62109-1.4844-0.39453-0.39062-0.93359-0.60938-1.4922-0.60156z"></path>
    <path d="m14.613 68.75c-0.55859-0.007812-1.0938 0.20703-1.4922 0.60156-0.39844 0.39063-0.62109 0.92578-0.62109 1.4805 0 0.55859 0.22266 1.0938 0.62109 1.4844 0.39844 0.39062 0.93359 0.60938 1.4922 0.60156h70.773c0.55859 0.007812 1.0977-0.21094 1.4922-0.60156 0.39844-0.39062 0.62109-0.92578 0.62109-1.4844 0-0.55469-0.22266-1.0898-0.62109-1.4805-0.39453-0.39453-0.93359-0.60937-1.4922-0.60156z"></path>
  </g>
</svg>
