<svg xmlns="http://www.w3.org/2000/svg" xmlns:xlink="http://www.w3.org/1999/xlink" height="400" viewBox="0 0 760 400" width="760"><linearGradient id="a"><stop offset="0" stop-color="#b1bce5"/><stop offset="1" stop-opacity="0"/></linearGradient><linearGradient id="b" x1="117.332%" x2="22.496%" xlink:href="#a" y1="10.609%" y2="89.258%"/><linearGradient id="c" x1="101.18%" x2="29.094%" xlink:href="#a" y1="10.609%" y2="89.258%"/><linearGradient id="d" x1="50%" x2="50%" y1="0%" y2="91.332%"><stop offset="0" stop-color="#b78cff"/><stop offset="1" stop-color="#191e2e"/></linearGradient><filter id="e" height="331%" width="298.2%" x="-98.9%" y="-115.6%"><feOffset dx="0" dy="12" in="SourceAlpha" result="shadowOffsetOuter1"/><feGaussianBlur in="shadowOffsetOuter1" result="shadowBlurOuter1" stdDeviation="57"/><feColorMatrix in="shadowBlurOuter1" result="shadowMatrixOuter1" type="matrix" values="0 0 0 0 0.066445171 0 0 0 0 0.066445171 0 0 0 0 0.066445171 0 0 0 1 0"/><feMerge><feMergeNode in="shadowMatrixOuter1"/><feMergeNode in="SourceGraphic"/></feMerge></filter><linearGradient id="f" x1="1.92%" x2="124.17%" y1="86.789%" y2="-23.245%"><stop offset="0" stop-color="#fff"/><stop offset="1" stop-color="#ffeb57"/></linearGradient><g fill="none" fill-rule="evenodd"><path d="m0 0h760v400h-760z" fill="#fff18b"/><g fill-rule="nonzero"><path d="m0 0h760v400h-760z" fill="#1d1d1c"/><g><path d="m320.865435 200.559203 33.52363 19.356187-171.507707 297.08461-33.52363-19.356187z" fill="url(#b)" fill-opacity=".6" transform="translate(-44.181512 -161)"/><g fill="url(#c)" transform="translate(-44.181512 -161)"><path d="m570.96785 248.405719-249.049175-248.405719-31.596039 31.5142357 217.453775 216.8914833-217.453775 216.891675 31.596039 31.514044z"/><path d="m0 248.405719 249.049176-248.405719 31.596039 31.5142357-217.4535845 216.8914833 217.4535845 216.891675-31.596039 31.514044z"/></g></g><path d="m644.50334 51c46.108874 0 83.490137 37.37961 83.49666 83.5 0 46.11371-37.387786 83.5-83.49666 83.5-46.115554 0-83.50334-37.38629-83.50334-83.5 0-46.12039 37.387786-83.5 83.50334-83.5zm.003332 19c-35.622789 0-64.506672 28.8781816-64.506672 64.506674 0 35.615144 28.885551 64.493326 64.506672 64.493326 35.616117 0 64.493328-28.876513 64.493328-64.493326 0-35.6284924-28.877211-64.506674-64.493328-64.506674zm10.740363 18-.00051 42.554847 35.753475 14.9623-7.526359 17.482853-47.473641-19.805188v-55.194812z" fill="url(#d)"/></g><g filter="url(#e)" transform="translate(427 134.55102)"><path d="m13.7633542 178.646768h197.4732918v-128.7569295h-197.4732918zm13.7660015-162.9983084c5.0272379 0 8.9981998 3.9821731 8.9981998 9.0209494 0 5.0387764-3.9709619 9.0209693-8.9981998 9.0209693-5.0245905.0105993-8.9955525-4.2397068-8.9955525-9.0209693 0-4.7812624 3.970962-9.0209494 8.9955525-9.0209494zm27.0104833 0c5.0272379 0 8.9981999 3.9821731 8.9981999 9.0209494 0 5.0387764-3.970962 9.0209494-8.9981999 9.0209494-5.0245905 0-8.9955736-3.982173-8.9955736-9.0209494-.0105681-5.0387763 3.9603939-9.0209494 8.9955736-9.0209494zm26.9998942 0c5.0245905 0 8.9955525 3.9821731 8.9955525 9.0209494 0 5.0387764-3.970962 9.0209494-8.9955525 9.0209494-5.0272379 0-8.9982118-3.982173-8.9982118-9.0209494-.00793-5.0387763 3.963032-9.0209494 8.9982118-9.0209494zm-81.5397332-9.19881975v178.99867915c0 3.865363 3.12382342 7.000661 6.98095115 7.000661h211.04074485c3.854481 0 6.978304-3.135298 6.978304-7.000661v-178.99867915c0-3.86536266-3.123823-7.00066026-6.978304-7.00066026h-211.04074485c-3.85712773 0-6.98095115 3.1352976-6.98095115 7.00066026z" fill="url(#f)"/><g fill="#fff" fill-rule="nonzero"><path d="m58.957346 62.4489796 49.042654 49.0014114-49.042805 48.998589-9.9570439-9.949275 39.0821292-39.052404-39.0822803-39.049349z"/><path d="m173 148.44898v13h-67v-13z"/></g></g><path d="m50.8333328 176.48c4.24 0 7.62-1.12 10.14-3.36s3.78-5.58 3.78-10.02c0-1.4-.22-2.66-.66-3.78s-.99-2.03-1.65-2.73-1.56-1.35-2.7-1.95-2.2-1.06-3.18-1.38-2.23-.68-3.75-1.08c-3.4-.88-5.87-1.78-7.41-2.7s-2.31-2.4-2.31-4.44.68-3.63 2.04-4.77 3.2-1.71 5.52-1.71c3.84 0 6.68 2.1 8.52 6.3l4.62-2.34c-.96-2.56-2.54-4.7-4.74-6.42s-5-2.58-8.4-2.58c-4 0-7.14 1.09-9.42 3.27s-3.42 4.99-3.42 8.43c0 1.6.25 3.03.75 4.29s1.09 2.27 1.77 3.03 1.62 1.45 2.82 2.07 2.26 1.08 3.18 1.38 2.12.63 3.6.99c1.52.36 2.67.66 3.45.9s1.64.55 2.58.93 1.61.77 2.01 1.17.75.92 1.05 1.56.45 1.4.45 2.28c0 2.48-.78 4.37-2.34 5.67s-3.66 1.95-6.3 1.95c-5.52 0-9.1-3.12-10.74-9.36l-4.92 1.92c.8 4.04 2.6 7.13 5.4 9.27s6.22 3.21 10.26 3.21zm37.1333335 0c6.08 0 10.34-2.78 12.7799997-8.34l-4.3799997-1.8c-1.6 3.72-4.4 5.58-8.4 5.58-2.92 0-5.2-1.03-6.84-3.09s-2.46-4.71-2.46-7.95.82-5.89 2.46-7.95 3.92-3.09 6.84-3.09c4 0 6.8 1.86 8.4 5.58l4.3799997-1.8c-2.4399997-5.56-6.6999997-8.34-12.7799997-8.34-4.44 0-7.96 1.52-10.56 4.56s-3.9 6.72-3.9 11.04 1.3 8 3.9 11.04 6.12 4.56 10.56 4.56zm29.1533337-.48v-10.92c0-4.84 1-8.59 3-11.25s4.42-3.99 7.26-3.99c3.44 0 5.38 1.84 5.82 5.52h5.04c-.16-3.24-1.11-5.73-2.85-7.47s-4.11-2.61-7.11-2.61c-4.84 0-8.56 2.02-11.16 6.06v-5.58h-5.04v30.24zm43.253333-34.2c1.16 0 2.14-.39 2.94-1.17s1.2-1.75 1.2-2.91-.4-2.15-1.2-2.97-1.78-1.23-2.94-1.23-2.14.41-2.94 1.23-1.2 1.81-1.2 2.97c0 1.12.4 2.08 1.2 2.88s1.78 1.2 2.94 1.2zm14.04 34.2v-4.44h-11.16v-25.8h-14.28v4.44h9.24v21.36h-10.44v4.44zm14.633334 12.24v-16.08c.92 1.24 2.19 2.27 3.81 3.09s3.43 1.23 5.43 1.23c4.36 0 7.76-1.42 10.2-4.26s3.66-6.62 3.66-11.34-1.22-8.5-3.66-11.34-5.84-4.26-10.2-4.26c-1.96 0-3.76.43-5.4 1.29s-2.92 1.93-3.84 3.21v-4.02h-5.04v42.48zm8.76-16.32c-2.84 0-5.08-1.02-6.72-3.06s-2.46-4.7-2.46-7.98.82-5.94 2.46-7.98 3.88-3.06 6.72-3.06 5.08 1.02 6.72 3.06 2.46 4.7 2.46 7.98-.82 5.94-2.46 7.98-3.88 3.06-6.72 3.06zm38.753333 4.56c3.6 0 6.7-1.3 9.3-3.9l-1.86-4.26c-2.28 2.4-4.76 3.6-7.44 3.6-3.48 0-5.22-2.04-5.22-6.12v-15.48h14.76v-4.56h-14.76v-12.24l-5.04 3.18v9.06h-8.04v4.56h8.04v15.66c0 3.48.88 6.1 2.64 7.86s4.3 2.64 7.62 2.64zm33.593334 0c3.28 0 6.04-.87 8.28-2.61s3.36-4.11 3.36-7.11c0-1.04-.21-1.98-.63-2.82s-.94-1.54-1.56-2.1-1.44-1.06-2.46-1.5-1.99-.78-2.91-1.02-2.02-.5-3.3-.78c-2.4-.48-4.17-1.07-5.31-1.77s-1.71-1.67-1.71-2.91c0-1.36.51-2.37 1.53-3.03s2.25-.99 3.69-.99c3.08 0 5.5 1.6 7.26 4.8l3.96-2.82c-2.4-4.36-6.08-6.54-11.04-6.54-2.88 0-5.32.8-7.32 2.4s-3 3.72-3 6.36c0 2.68.86 4.65 2.58 5.91s4.12 2.21 7.2 2.85c2.76.6 4.75 1.19 5.97 1.77s1.83 1.47 1.83 2.67c0 1.52-.61 2.68-1.83 3.48s-2.75 1.2-4.59 1.2c-2.04 0-3.77-.53-5.19-1.59s-2.47-2.53-3.15-4.41l-4.8 1.8c.92 2.8 2.56 4.96 4.92 6.48s5.1 2.28 8.22 2.28z" fill="#fff9c8" fill-rule="nonzero"/><path d="m86.1 231.48c4.8 0 8.72-1.85 11.76-5.55s4.56-9.01 4.56-15.93-1.52-12.23-4.56-15.93-6.96-5.55-11.76-5.55-8.72 1.86-11.76 5.58c-3.04 3.68-4.56 8.98-4.56 15.9s1.52 12.23 4.56 15.93 6.96 5.55 11.76 5.55zm0-5.04c-3.32 0-5.96-1.33-7.92-3.99s-2.94-6.81-2.94-12.45.98-9.79 2.94-12.45 4.6-3.99 7.92-3.99 5.96 1.34 7.92 4.02c1.96 2.64 2.94 6.78 2.94 12.42s-.98 9.79-2.94 12.45-4.6 3.99-7.92 3.99zm30.353333 4.56v-10.92c0-4.84 1-8.59 3-11.25s4.420001-3.99 7.260001-3.99c3.44 0 5.379999 1.84 5.819999 5.52h5.04c-.16-3.24-1.11-5.73-2.85-7.47-1.739999-1.74-4.109999-2.61-7.11-2.61-4.84 0-8.56 2.02-11.16 6.06v-5.58h-5.04v30.24zm43.073334 12.72c3.92 0 7.26-.86 10.02-2.58s4.14-4.34 4.14-7.86c0-2.72-.88-4.79-2.64-6.21s-4.26-2.13-7.5-2.13h-7.86c-2.84 0-4.26-.84-4.26-2.52 0-1.36.92-2.4 2.76-3.12 1.64.84 3.5 1.26 5.58 1.26 3.12 0 5.68-.92 7.68-2.76s3-4.3 3-7.38c0-1.92-.42-3.6-1.26-5.04l5.1-2.64-2.28-4.14-6.3 3.24c-1.8-1.04-3.78-1.56-5.94-1.56-3.08 0-5.63.92-7.65 2.76s-3.03 4.3-3.03 7.38c0 2.44.62 4.5 1.86 6.18-1.4.52-2.49 1.32-3.27 2.4s-1.17 2.3-1.17 3.66c0 1.96.72 3.5 2.16 4.62-2.08 1.6-3.12 3.76-3.12 6.48 0 3.24 1.23 5.71 3.69 7.41s5.89 2.55 10.29 2.55zm.24-27.48c-1.64 0-3.01-.52-4.11-1.56s-1.65-2.46-1.65-4.26.54-3.22 1.62-4.26c1.12-1.04 2.5-1.56 4.14-1.56s3.01.51 4.11 1.53 1.65 2.45 1.65 4.29-.55 3.27-1.65 4.29-2.47 1.53-4.11 1.53zm-.24 23.04c-2.72 0-4.89-.51-6.51-1.53s-2.43-2.41-2.43-4.17c0-2.16.86-3.68 2.58-4.56.84.16 1.88.24 3.12.24h7.14c3.4 0 5.1 1.5 5.1 4.5 0 1.72-.79 3.07-2.37 4.05s-3.79 1.47-6.63 1.47zm33.593334-7.8c2.24 0 4.339999-.44 6.299999-1.32s3.42-2.02 4.38-3.42l.72 4.26h4.08v-19.08c0-4-1.07-6.94-3.21-8.82s-5.07-2.82-8.79-2.82c-2.8 0-5.26.77-7.38 2.31s-3.52 3.61-4.2 6.21l4.44 1.2c.48-1.52 1.36-2.76 2.64-3.72s2.78-1.44 4.5-1.44c2.04 0 3.710001.49 5.01 1.47 1.3.98 1.950001 2.57 1.950001 4.77v1.32h-6.120001c-4.28 0-7.629999.83-10.05 2.49-2.42 1.66-3.63 4.13-3.63 7.41 0 2.96.89 5.23 2.670001 6.81 1.779999 1.58 4.009999 2.37 6.69 2.37zm.779999-4.56c-1.52 0-2.729999-.41-3.63-1.23-.899999-.82-1.35-1.95-1.35-3.39 0-1.72.700001-3.08 2.1-4.08 1.4-1 3.38-1.5 5.94-1.5h6.600001v.96c0 3.08-1.01 5.39-3.030001 6.93-2.02 1.54-4.229999 2.31-6.63 2.31zm31.553334 4.08v-12.18c0-4.24.86-7.63 2.58-10.17s3.82-3.81 6.3-3.81c3.72 0 5.58 2.06 5.58 6.18v19.98h5.04v-21.06c0-3-.77-5.36-2.31-7.08s-3.85-2.58-6.93-2.58c-2.08 0-4.03.56-5.85 1.68s-3.29 2.58-4.41 4.38v-5.58h-5.04v30.24zm43.853334-34.2c1.159999 0 2.139999-.39 2.94-1.17.8-.78 1.199999-1.75 1.199999-2.91s-.399999-2.15-1.199999-2.97c-.800001-.82-1.780001-1.23-2.94-1.23-1.16 0-2.14.41-2.940001 1.23-.8.82-1.199999 1.81-1.199999 2.97 0 1.12.399999 2.08 1.199999 2.88.800001.8 1.780001 1.2 2.940001 1.2zm14.039999 34.2v-4.44h-11.16v-25.8h-14.279999v4.44h9.239999v21.36h-10.44v4.44zm34.133334 0v-4.56h-16.74l16.02-23.52v-2.16h-22.68v4.56h15.06l-15.84 23.52v2.16zm24.773333.48c6.24 0 10.82-2.82 13.74-8.46l-4.02-2.1c-2.16 4-5.4 6-9.72 6-2.68 0-4.859999-.91-6.54-2.73-1.679999-1.82-2.599999-4.23-2.76-7.23h23.64v-2.1c0-4.16-1.26-7.63-3.78-10.41s-6.04-4.17-10.56-4.17c-4.4 0-7.91 1.5-10.53 4.5s-3.93 6.7-3.93 11.1c0 4.48 1.33 8.2 3.99 11.16s6.150001 4.44 10.47 4.44zm9-19.08h-17.94c.52-2.36 1.55-4.21 3.09-5.55s3.490001-2.01 5.85-2.01c2.44 0 4.44.66 6 1.98s2.56 3.18 3 5.58zm20.933334 18.6v-10.92c0-4.84 1-8.59 3-11.25s4.42-3.99 7.26-3.99c3.44 0 5.38 1.84 5.82 5.52h5.04c-.16-3.24-1.11-5.73-2.85-7.47s-4.11-2.61-7.11-2.61c-4.84 0-8.56 2.02-11.16 6.06v-5.58h-5.04v30.24z" fill="#fff9c8" fill-rule="nonzero"/><path d="m70.47 281 1.701-5.049h7.398l1.701 5.049h2.457l-6.723-18.9h-2.268l-6.723 18.9zm8.316-7.317h-5.832l2.916-8.505zm13.2810001 7.533c.882 0 1.692-.1935 2.43-.5805s1.314-.8685 1.728-1.4445v1.809h2.268v-19.116h-2.268v7.236c-.414-.558-.9855-1.0215-1.7145-1.3905s-1.5435-.5535-2.4435-.5535c-1.962 0-3.492.639-4.59 1.917s-1.647 2.979-1.647 5.103.549 3.825 1.647 5.103 2.628 1.917 4.59 1.917zm.216-2.052c-1.278 0-2.286-.459-3.024-1.377s-1.107-2.115-1.107-3.591.369-2.673 1.107-3.591 1.746-1.377 3.024-1.377 2.286.459 3.024 1.377 1.107 2.115 1.107 3.591-.369 2.673-1.107 3.591-1.746 1.377-3.024 1.377zm17.6009999 1.836 5.697-13.608h-2.457l-4.374 10.908-4.374-10.908h-2.457l5.697 13.608zm14.145.216c1.008 0 1.953-.198 2.835-.594s1.539-.909 1.971-1.539l.324 1.917h1.836v-8.586c0-1.8-.4815-3.123-1.4445-3.969s-2.2815-1.269-3.9555-1.269c-1.26 0-2.367.3465-3.321 1.0395s-1.584 1.6245-1.89 2.7945l1.998.54c.216-.684.612-1.242 1.188-1.674s1.251-.648 2.025-.648c.918 0 1.6695.2205 2.2545.6615s.8775 1.1565.8775 2.1465v.594h-2.754c-1.926 0-3.4335.3735-4.5225 1.1205s-1.6335 1.8585-1.6335 3.3345c0 1.332.4005 2.3535 1.2015 3.0645s1.8045 1.0665 3.0105 1.0665zm.351-2.052c-.684 0-1.2285-.1845-1.6335-.5535s-.6075-.8775-.6075-1.5255c0-.774.315-1.386.945-1.836s1.521-.675 2.673-.675h2.97v.432c0 1.386-.4545 2.4255-1.3635 3.1185s-1.9035 1.0395-2.9835 1.0395zm14.199 1.836v-5.481c0-1.908.387-3.4335 1.161-4.5765s1.719-1.7145 2.835-1.7145c1.674 0 2.511.927 2.511 2.781v8.991h2.268v-9.477c0-1.35-.3465-2.412-1.0395-3.186s-1.7325-1.161-3.1185-1.161c-.936 0-1.8135.252-2.6325.756s-1.4805 1.161-1.9845 1.971v-2.511h-2.268v13.608zm20.031.216c2.736 0 4.653-1.251 5.751-3.753l-1.971-.81c-.72 1.674-1.98 2.511-3.78 2.511-1.314 0-2.34-.4635-3.078-1.3905s-1.107-2.1195-1.107-3.5775.369-2.6505 1.107-3.5775 1.764-1.3905 3.078-1.3905c1.8 0 3.06.837 3.78 2.511l1.971-.81c-1.098-2.502-3.015-3.753-5.751-3.753-1.998 0-3.582.684-4.752 2.052s-1.755 3.024-1.755 4.968.585 3.6 1.755 4.968 2.754 2.052 4.752 2.052zm16.089 0c2.808 0 4.869-1.269 6.183-3.807l-1.809-.945c-.972 1.8-2.43 2.7-4.374 2.7-1.206 0-2.187-.4095-2.943-1.2285s-1.17-1.9035-1.242-3.2535h10.638v-.945c0-1.872-.567-3.4335-1.701-4.6845s-2.718-1.8765-4.752-1.8765c-1.98 0-3.5595.675-4.7385 2.025s-1.7685 3.015-1.7685 4.995c0 2.016.5985 3.69 1.7955 5.022s2.7675 1.998 4.7115 1.998zm4.05-8.586h-8.073c.234-1.062.6975-1.8945 1.3905-2.4975s1.5705-.9045 2.6325-.9045c1.098 0 1.998.297 2.7.891s1.152 1.431 1.35 2.511zm11.958001 8.586c.882 0 1.692-.1935 2.43-.5805s1.314-.8685 1.728-1.4445v1.809h2.268v-19.116h-2.268v7.236c-.414-.558-.9855-1.0215-1.7145-1.3905s-1.5435-.5535-2.4435-.5535c-1.962 0-3.492.639-4.59 1.917s-1.647 2.979-1.647 5.103.549 3.825 1.647 5.103 2.628 1.917 4.59 1.917zm.216-2.052c-1.278 0-2.286-.459-3.024-1.377s-1.107-2.115-1.107-3.591.369-2.673 1.107-3.591 1.746-1.377 3.024-1.377 2.286.459 3.024 1.377 1.107 2.115 1.107 3.591-.369 2.673-1.107 3.591-1.746 1.377-3.024 1.377zm33.663 2.052c1.764 0 3.2265-.522 4.3875-1.566s1.9575-2.439 2.3895-4.185l-2.241-.675c-.432 1.404-1.0035 2.448-1.7145 3.132s-1.6515 1.026-2.8215 1.026c-1.674 0-2.9835-.6075-3.9285-1.8225s-1.4175-3.0735-1.4175-5.5755.4725-4.3605 1.4175-5.5755 2.2545-1.8225 3.9285-1.8225c1.17 0 2.1105.342 2.8215 1.026s1.2825 1.728 1.7145 3.132l2.241-.675c-.432-1.746-1.2285-3.141-2.3895-4.185s-2.6235-1.566-4.3875-1.566c-2.268 0-4.1355.828-5.6025 2.484s-2.2005 4.05-2.2005 7.182.7335 5.526 2.2005 7.182 3.3345 2.484 5.6025 2.484zm15.684 0c2.016 0 3.636-.684 4.86-2.052s1.836-3.024 1.836-4.968-.612-3.6-1.836-4.968-2.844-2.052-4.86-2.052-3.636.684-4.86 2.052-1.836 3.024-1.836 4.968.612 3.6 1.836 4.968 2.844 2.052 4.86 2.052zm0-2.052c-1.332 0-2.394-.486-3.186-1.458s-1.188-2.142-1.188-3.51.396-2.538 1.188-3.51 1.854-1.458 3.186-1.458 2.394.486 3.186 1.458 1.188 2.142 1.188 3.51-.396 2.538-1.188 3.51-1.854 1.458-3.186 1.458zm16.197 2.052c.882 0 1.692-.1935 2.43-.5805s1.314-.8685 1.728-1.4445v1.809h2.268v-19.116h-2.268v7.236c-.414-.558-.9855-1.0215-1.7145-1.3905s-1.5435-.5535-2.4435-.5535c-1.962 0-3.492.639-4.59 1.917s-1.647 2.979-1.647 5.103.549 3.825 1.647 5.103 2.628 1.917 4.59 1.917zm.216-2.052c-1.278 0-2.286-.459-3.024-1.377s-1.107-2.115-1.107-3.591.369-2.673 1.107-3.591 1.746-1.377 3.024-1.377 2.286.459 3.024 1.377 1.107 2.115 1.107 3.591-.369 2.673-1.107 3.591-1.746 1.377-3.024 1.377zm16.656 2.052c2.808 0 4.869-1.269 6.183-3.807l-1.809-.945c-.972 1.8-2.43 2.7-4.374 2.7-1.206 0-2.187-.4095-2.943-1.2285s-1.17-1.9035-1.242-3.2535h10.638v-.945c0-1.872-.567-3.4335-1.701-4.6845s-2.718-1.8765-4.752-1.8765c-1.98 0-3.5595.675-4.7385 2.025s-1.7685 3.015-1.7685 4.995c0 2.016.5985 3.69 1.7955 5.022s2.7675 1.998 4.7115 1.998zm4.05-8.586h-8.073c.234-1.062.6975-1.8945 1.3905-2.4975s1.5705-.9045 2.6325-.9045c1.098 0 1.998.297 2.7.891s1.152 1.431 1.35 2.511zm34.986 8.37v-2.268h-9.882v-6.669h8.262v-2.268h-8.262v-5.427h9.612v-2.268h-11.988v18.9zm9.852.216c.882 0 1.692-.1935 2.43-.5805s1.314-.8685 1.728-1.4445v1.809h2.268v-19.116h-2.268v7.236c-.414-.558-.9855-1.0215-1.7145-1.3905s-1.5435-.5535-2.4435-.5535c-1.962 0-3.492.639-4.59 1.917s-1.647 2.979-1.647 5.103.549 3.825 1.647 5.103 2.628 1.917 4.59 1.917zm.216-2.052c-1.278 0-2.286-.459-3.024-1.377s-1.107-2.115-1.107-3.591.369-2.673 1.107-3.591 1.746-1.377 3.024-1.377 2.286.459 3.024 1.377 1.107 2.115 1.107 3.591-.369 2.673-1.107 3.591-1.746 1.377-3.024 1.377zm16.71-13.554c.522 0 .963-.1755 1.323-.5265s.54-.7875.54-1.3095-.18-.9675-.54-1.3365-.801-.5535-1.323-.5535-.963.1845-1.323.5535-.54.8145-.54 1.3365c0 .504.18.936.54 1.296s.801.54 1.323.54zm6.318 15.39v-1.998h-5.022v-11.61h-6.426v1.998h4.158v9.612h-4.698v1.998zm11.526.216c1.62 0 3.015-.585 4.185-1.755l-.837-1.917c-1.026 1.08-2.142 1.62-3.348 1.62-1.566 0-2.349-.918-2.349-2.754v-6.966h6.642v-2.052h-6.642v-5.508l-2.268 1.431v4.077h-3.618v2.052h3.618v7.047c0 1.566.396 2.745 1.188 3.537s1.935 1.188 3.429 1.188zm14.793 0c2.016 0 3.636-.684 4.86-2.052s1.836-3.024 1.836-4.968-.612-3.6-1.836-4.968-2.844-2.052-4.86-2.052-3.636.684-4.86 2.052-1.836 3.024-1.836 4.968.612 3.6 1.836 4.968 2.844 2.052 4.86 2.052zm0-2.052c-1.332 0-2.394-.486-3.186-1.458s-1.188-2.142-1.188-3.51.396-2.538 1.188-3.51 1.854-1.458 3.186-1.458 2.394.486 3.186 1.458 1.188 2.142 1.188 3.51-.396 2.538-1.188 3.51-1.854 1.458-3.186 1.458zm13.659 1.836v-4.914c0-2.178.45-3.8655 1.35-5.0625s1.989-1.7955 3.267-1.7955c1.548 0 2.421.828 2.619 2.484h2.268c-.072-1.458-.4995-2.5785-1.2825-3.3615s-1.8495-1.1745-3.1995-1.1745c-2.178 0-3.852.909-5.022 2.727v-2.511h-2.268v13.608zm-309.282001 33v-11.556h5.292v-2.052h-5.292v-.891c0-1.71.666-2.565 1.998-2.565.702 0 1.431.243 2.187.729l.567-1.998c-.864-.522-1.809-.783-2.835-.783-2.79 0-4.185 1.557-4.185 4.671v.837h-3.834v2.052h3.834v11.556zm16.1430001.216c2.016 0 3.636-.684 4.86-2.052s1.836-3.024 1.836-4.968-.612-3.6-1.836-4.968-2.844-2.052-4.86-2.052-3.636.684-4.86 2.052-1.836 3.024-1.836 4.968.612 3.6 1.836 4.968 2.844 2.052 4.86 2.052zm0-2.052c-1.332 0-2.394-.486-3.186-1.458s-1.188-2.142-1.188-3.51.396-2.538 1.188-3.51 1.854-1.458 3.186-1.458 2.394.486 3.186 1.458 1.188 2.142 1.188 3.51-.396 2.538-1.188 3.51-1.854 1.458-3.186 1.458zm13.6589999 1.836v-4.914c0-2.178.45-3.8655 1.35-5.0625s1.989-1.7955 3.267-1.7955c1.548 0 2.421.828 2.619 2.484h2.268c-.072-1.458-.4995-2.5785-1.2825-3.3615s-1.8495-1.1745-3.1995-1.1745c-2.178 0-3.852.909-5.022 2.727v-2.511h-2.268v13.608zm32.88 0 2.781-11.097 2.781 11.097h2.943l1.809-18.9h-2.457l-1.134 15.39-2.862-11.529h-2.16l-2.862 11.529-1.134-15.39h-2.457l1.809 18.9zm19.221.216c2.016 0 3.636-.684 4.86-2.052s1.836-3.024 1.836-4.968-.612-3.6-1.836-4.968-2.844-2.052-4.86-2.052-3.636.684-4.86 2.052-1.836 3.024-1.836 4.968.612 3.6 1.836 4.968 2.844 2.052 4.86 2.052zm0-2.052c-1.332 0-2.394-.486-3.186-1.458s-1.188-2.142-1.188-3.51.396-2.538 1.188-3.51 1.854-1.458 3.186-1.458 2.394.486 3.186 1.458 1.188 2.142 1.188 3.51-.396 2.538-1.188 3.51-1.854 1.458-3.186 1.458zm13.659 1.836v-4.914c0-2.178.45-3.8655 1.35-5.0625s1.989-1.7955 3.267-1.7955c1.548 0 2.421.828 2.619 2.484h2.268c-.072-1.458-.4995-2.5785-1.2825-3.3615s-1.8495-1.1745-3.1995-1.1745c-2.178 0-3.852.909-5.022 2.727v-2.511h-2.268v13.608zm18.978001.216c.882 0 1.692-.1935 2.43-.5805s1.314-.8685 1.728-1.4445v1.809h2.268v-19.116h-2.268v7.236c-.414-.558-.9855-1.0215-1.7145-1.3905s-1.5435-.5535-2.4435-.5535c-1.962 0-3.492.639-4.59 1.917s-1.647 2.979-1.647 5.103.549 3.825 1.647 5.103 2.628 1.917 4.59 1.917zm.216-2.052c-1.278 0-2.286-.459-3.024-1.377s-1.107-2.115-1.107-3.591.369-2.673 1.107-3.591 1.746-1.377 3.024-1.377 2.286.459 3.024 1.377 1.107 2.115 1.107 3.591-.369 2.673-1.107 3.591-1.746 1.377-3.024 1.377zm13.146 1.836v-8.1h4.779c1.8 0 3.186-.4815 4.158-1.4445s1.458-2.2815 1.458-3.9555-.486-2.9925-1.458-3.9555-2.358-1.4445-4.158-1.4445h-7.155v18.9zm4.725-10.368h-4.725v-6.264h4.725c2.142 0 3.213 1.044 3.213 3.132s-1.071 3.132-3.213 3.132zm12.255 10.368v-4.914c0-2.178.45-3.8655 1.35-5.0625s1.989-1.7955 3.267-1.7955c1.548 0 2.421.828 2.619 2.484h2.268c-.072-1.458-.4995-2.5785-1.2825-3.3615s-1.8495-1.1745-3.1995-1.1745c-2.178 0-3.852.909-5.022 2.727v-2.511h-2.268v13.608zm19.41.216c2.808 0 4.869-1.269 6.183-3.807l-1.809-.945c-.972 1.8-2.43 2.7-4.374 2.7-1.206 0-2.187-.4095-2.943-1.2285s-1.17-1.9035-1.242-3.2535h10.638v-.945c0-1.872-.567-3.4335-1.701-4.6845s-2.718-1.8765-4.752-1.8765c-1.98 0-3.5595.675-4.7385 2.025s-1.7685 3.015-1.7685 4.995c0 2.016.5985 3.69 1.7955 5.022s2.7675 1.998 4.7115 1.998zm4.05-8.586h-8.073c.234-1.062.6975-1.8945 1.3905-2.4975s1.5705-.9045 2.6325-.9045c1.098 0 1.998.297 2.7.891s1.152 1.431 1.35 2.511zm12.525 8.586c1.476 0 2.718-.3915 3.726-1.1745s1.512-1.8495 1.512-3.1995c0-.468-.0945-.891-.2835-1.269s-.423-.693-.702-.945-.648-.477-1.107-.675-.8955-.351-1.3095-.459-.909-.225-1.485-.351c-1.08-.216-1.8765-.4815-2.3895-.7965s-.7695-.7515-.7695-1.3095c0-.612.2295-1.0665.6885-1.3635s1.0125-.4455 1.6605-.4455c1.386 0 2.475.72 3.267 2.16l1.782-1.269c-1.08-1.962-2.736-2.943-4.968-2.943-1.296 0-2.394.36-3.294 1.08s-1.35 1.674-1.35 2.862c0 1.206.387 2.0925 1.161 2.6595s1.854.9945 3.24 1.2825c1.242.27 2.1375.5355 2.6865.7965s.8235.6615.8235 1.2015c0 .684-.2745 1.206-.8235 1.566s-1.2375.54-2.0655.54c-.918 0-1.6965-.2385-2.3355-.7155s-1.1115-1.1385-1.4175-1.9845l-2.16.81c.414 1.26 1.152 2.232 2.214 2.916s2.295 1.026 3.699 1.026zm16.44 0c1.476 0 2.718-.3915 3.726-1.1745s1.512-1.8495 1.512-3.1995c0-.468-.0945-.891-.2835-1.269s-.423-.693-.702-.945-.648-.477-1.107-.675-.8955-.351-1.3095-.459-.909-.225-1.485-.351c-1.08-.216-1.8765-.4815-2.3895-.7965s-.7695-.7515-.7695-1.3095c0-.612.2295-1.0665.6885-1.3635s1.0125-.4455 1.6605-.4455c1.386 0 2.475.72 3.267 2.16l1.782-1.269c-1.08-1.962-2.736-2.943-4.968-2.943-1.296 0-2.394.36-3.294 1.08s-1.35 1.674-1.35 2.862c0 1.206.387 2.0925 1.161 2.6595s1.854.9945 3.24 1.2825c1.242.27 2.1375.5355 2.6865.7965s.8235.6615.8235 1.2015c0 .684-.2745 1.206-.8235 1.566s-1.2375.54-2.0655.54c-.918 0-1.6965-.2385-2.3355-.7155s-1.1115-1.1385-1.4175-1.9845l-2.16.81c.414 1.26 1.152 2.232 2.214 2.916s2.295 1.026 3.699 1.026z" fill="#af86f5" fill-rule="nonzero"/></g></svg>