<svg height="100pt" viewBox="0 0 100 100" width="100pt" xmlns="http://www.w3.org/2000/svg"><path d="m14.613 47.918c-.55859-.007813-1.0977.20703-1.4922.59766-.39844.39062-.62109.92578-.62109 1.4844s.22266 1.0938.62109 1.4844c.39453.39062.93359.60547 1.4922.59766h70.773c.55859.007813 1.0977-.20703 1.4922-.59766.39844-.39062.62109-.92578.62109-1.4844s-.22266-1.0938-.62109-1.4844c-.39453-.39062-.93359-.60547-1.4922-.59766z"/><path d="m14.613 27.082c-.55859-.007812-1.0977.21094-1.4922.60156-.39844.39062-.62109.92578-.62109 1.4844 0 .55469.22266 1.0898.62109 1.4805.39453.39453.93359.60937 1.4922.60156h70.773c.55859.007812 1.0977-.20703 1.4922-.60156.39844-.39063.62109-.92578.62109-1.4805 0-.55859-.22266-1.0938-.62109-1.4844-.39453-.39062-.93359-.60938-1.4922-.60156z"/><path d="m14.613 68.75c-.55859-.007812-1.0938.20703-1.4922.60156-.39844.39063-.62109.92578-.62109 1.4805 0 .55859.22266 1.0938.62109 1.4844.39844.39062.93359.60938 1.4922.60156h70.773c.55859.007812 1.0977-.21094 1.4922-.60156.39844-.39062.62109-.92578.62109-1.4844 0-.55469-.22266-1.0898-.62109-1.4805-.39453-.39453-.93359-.60937-1.4922-.60156z"/></svg>