<svg fill="none" height="94" viewBox="0 0 129 94" width="129" xmlns="http://www.w3.org/2000/svg" xmlns:xlink="http://www.w3.org/1999/xlink"><linearGradient id="a" gradientUnits="userSpaceOnUse" x1="69.864" x2="94.175" y1="47" y2="114.138"><stop offset="0" stop-color="#f2f3f3"/><stop offset=".988" stop-color="#f9f9f9" stop-opacity="0"/></linearGradient><path d="m34.6098 94c-9.8324 0-18.0915-3.3292-24.77748-9.9875-6.55489-6.7888-9.83232-16.5154-9.83232-29.1792 0-10.0528 2.68749-19.1916 8.0625-27.4166 5.5061-8.3556 13.3064-15.0139 23.4009-19.97502 10.2256-4.96112 20.8445-7.44168 31.8567-7.44168l3.933 5.48334c-3.2774 0-7.4726.65276-12.5854 1.95834-5.1128 1.175-10.16 3.00272-15.1418 5.48332s-9.1114 5.6139-12.3887 9.4c-4.9817 5.7445-7.4726 10.4445-7.4726 14.1 1.0488-1.4362 3.4086-2.6763 7.0793-3.7208 3.6706-1.175 7.6036-1.7625 11.7988-1.7625 10.4879 0 18.4847 4.3083 23.9908 12.925 1.9665-8.7472 5.8994-16.3847 11.7988-22.9125 6.0304-6.5278 13.372-11.61948 22.0244-15.27502 8.7833-3.78612 18.2223-5.67918 28.3173-5.67918l3.933 5.48334c-3.278 0-7.473.65276-12.586 1.95834-5.112 1.175-10.16 3.00272-15.141 5.48332-4.9822 2.4806-9.1118 5.6139-12.3891 9.4-4.9818 5.7445-7.4726 10.4445-7.4726 14.1 1.0489-1.4362 3.4086-2.6763 7.0793-3.7208 3.6706-1.175 7.6035-1.7625 11.7987-1.7625 5.7687 0 10.8157 1.3708 15.1417 4.1125 4.326 2.7416 7.735 6.4625 10.226 11.1625 2.49 4.5695 3.736 9.6612 3.736 15.275 0 9.4-3.015 17.1679-9.046 23.3041-5.899 6.1362-13.896 9.2042-23.9906 9.2042-6.817 0-12.9786-1.6971-18.4847-5.0917-5.5061-3.3945-9.5701-8.0945-12.1921-14.1-2.4908 6.0055-6.3583 10.7055-11.6022 14.1-5.2438 3.3946-11.6021 5.0917-19.0746 5.0917z" fill="url(#a)"/></svg>